<?xml version="1.0" encoding="utf-8"?>
<!-- Generator: Adobe Illustrator 19.0.0, SVG Export Plug-In . SVG Version: 6.00 Build 0)  -->
<svg version="1.1" xmlns="http://www.w3.org/2000/svg" xmlns:xlink="http://www.w3.org/1999/xlink" x="0px" y="0px"
	 viewBox="0 0 574.9 378.7" style="enable-background:new 0 0 574.9 378.7;" xml:space="preserve">
<style type="text/css">
	.st0{fill:#474747;}
	.st1{opacity:0.5;fill:#333333;}
	.st2{opacity:0.57;fill:#FFFFFF;}
	.st3{opacity:0.55;fill:#FFFFFF;}
	.st4{fill:#FFFFFF;}
	.st5{opacity:0.2;fill:#FFFFFF;}
	.st6{fill:none;}
</style>
<g id="Layer_1">
</g>
<g id="Layer_2">
	<path id="XMLID_5_" class="st0" d="M281.2,39.6c-11.5-5.8-36.4-16.2-68.4-13.4c-34.4,3-57.6,19.4-68.9,27.7
		c-10.1,7.4-25.6,18.7-36.5,38.1c-22.9,40.9-7.8,86.3-4,96.8c0,0,7.9,59.5,105.6,103.2s234.1,69.8,234.1,69.8s91.3-10.3,47.6-192.9
		c0,0-0.8-30.2-77.8-60.3L281.2,39.6z"/>
	<path id="XMLID_6_" class="st1" d="M204.6,29.5c-13.8,2.7-37.1,9.1-60,26.5c-12.4,9.5-24.7,18.8-28.5,32.7
		c-6.7,24.7,14.2,57.1,51.4,79.7c0,0,67.1,44.6,95.6,53.5c28.4,8.9,77.4,28.7,87.8,37.8c10.5,9.1,23.7,21.4,50.3,63.5
		s48,35.5,48,35.5c6.3-3.3,16.9-9.9,26.2-21.8c10.2-12.9,14.1-25.7,15.8-32.9c-18.3-5.7-36.6-11.4-54.9-17.1
		c-5.6-1.7-12.1-4.1-18.9-7.7c-10.7-5.5-18.8-11.8-24.8-17.1c-6.6-4.5-13.2-9-19.8-13.5c-23.6-16.7-48.4-33.4-74.3-50
		c-10.2-6.5-20.4-12.9-30.5-19.1c-8.1-6.4-17.7-14.1-28.5-22.8c-26-21-30.5-25.8-35-32.5c-1.9-2.9-11.1-17.4-13.3-38.5
		C188.7,58.1,200,37.1,204.6,29.5z"/>
	<path id="XMLID_7_" class="st0" d="M97.1,119.5L0.9,68.8c0,0-7.3-35.8,20.3-50.4l104,50.5C125.2,69,100.2,97.1,97.1,119.5z"/>
	<path id="XMLID_8_" class="st1" d="M5.7,45.8c32.2,16.8,64.5,33.6,96.7,50.4c-1.6,2.4-3.6,5.8-4.9,10.2c-0.9,2.9-1.3,5.5-1.5,7.7
		C65.1,97.9,34.3,81.7,3.5,65.6C3.5,65.6-0.2,61.9,5.7,45.8z"/>
	<path id="XMLID_9_" class="st1" d="M106.2,196.4c-2.4-6-10.3-27.2-8.2-54.8c0.7-9.1,1-13.6,3-14.2c6.7-2.1,15.7,58,51.2,100.2
		c51.1,60.9,159.1,86.6,194.3,90.3c8.3,0.9,39.3,3.3,57.2,25.4c2.6,3.2,4.3,6.1,5.2,7.7c-27.6-6.3-49.6-12.5-65-17.1
		c-11.4-3.4-15.6-4.9-35.3-11c-34.7-10.6-37.4-10.7-50.3-14.9c-38.9-12.6-66.8-28.5-74.6-33c-22.2-12.9-36.3-20.9-51.1-37.2
		C115.4,218.8,107.9,200.8,106.2,196.4z"/>
	<path id="XMLID_22_" class="st2" d="M429,271.4c-1.2,1.4-14.2-5.8-31.4-15.4c-9.1-5.1-26-14.7-87.1-56.9c0,0-22.7-15.7-49.8-35.3
		c1.9,2,2.6,3.1,2.2,4.3c-3.2,8.4-65.5,9.6-85.6-27.1c-11.6-21.1-7.4-51.4,3.4-55.5c9.2-3.5,24.7,11.8,34.6,23.2
		c15.6,8.7,24,20.1,24,20.1c2.2,3.4,4.1,4.5,6.4,7.4c20.9,25.9,85.7,51,133.9,86.5C410,245.1,430.7,269.3,429,271.4z"/>
	<path id="XMLID_14_" class="st2" d="M238.1,37.2c28.2,1.7,92,40,112.4,51.7c7.3,4.2,50,28.7,79.6,46.8c2.1,1.3,10.9,6.7,20.8,15.8
		c10.1,9.3,20.1,21.3,18.6,22.8c-0.7,0.7-3.9-1-10.6-5.3c-15.6-10-23.4-14.9-32-22.3c-23.5-20.3-105.8-71.1-167.3-94.5
		c-6.9-2.6-29.7-11.1-28.9-14C231.1,36.8,236.3,37.1,238.1,37.2z"/>
	<path id="XMLID_11_" class="st3" d="M189.3,193.8c16.6,9.6,35.2,19.4,55.9,28.7c25.1,11.3,48.8,20,70.4,26.7c0,0,24.3,8.4,23.6,11
		c-0.1,0.4-0.9,0.6-1.3,0.6c-13,2.3-108.5-36.7-108.5-36.7c-7.8-3.2-27.4-10.9-49.2-27.2c-0.8-0.6-1.4-1-1.8-1.3
		c-3.7-4.1-7.7-9-6.7-10.2C173.2,183.7,183.8,190.6,189.3,193.8z"/>
	<path id="XMLID_10_" class="st3" d="M10,56.2l52.7,29c0,0-1.2-3.1,1.9-4.3c0.1,0,0.1-0.1,0.1-0.1c0.3-0.5-10.4-6.7-52.8-28.9
		C11.3,53.3,10.6,54.8,10,56.2z"/>
	<path id="XMLID_13_" class="st4" d="M574.9,269.2"/>
	<path id="XMLID_15_" class="st5" d="M143.7,65.1c-1.7,1.6-13.2,12.4-10.4,17.5c1,1.9,3.9,2.7,8,2.7c16.9,0.3,26.6-11.2,51.6-24.6
		c13.6-7.3,24.6-11.3,23.8-15.4c-0.2-1.1-1.3-2.3-4.9-3.6c-23-8-55.4,14-64.7,20.7C145.5,63.7,144.3,64.7,143.7,65.1z"/>
	<path id="XMLID_x5F_2_x5F_" class="st6" d="M73.9,96.1c8.2,1.1,62.3,59.2,81.3,69.4c48.8,26.3,121.3,23.8,243.4,140
		c12.4,11.8,72.4,31.1,82.2,31.8c18.3-1.5,47.1-8.1,65.4-9.6"/>
	<text id="XMLID_4_">	<textPath  xlink:href="#XMLID_x5F_2_x5F_" startOffset="7.9713%">
<tspan  class="st4" style="font-family:'Droid Sans', sans-serif; font-size:180px;">S</tspan><tspan  class="st4" style="font-family:'Droid Sans', sans-serif; font-size:97px;">coopful</tspan>	</textPath>
</text>
	<path id="XMLID_16_" class="st6" d="M180.3,365.8"/>
</g>
</svg>
